<mxfile host="app.diagrams.net" modified="2021-11-07T05:38:56.799Z" agent="5.0 (Macintosh; Intel Mac OS X 10_15_7) AppleWebKit/537.36 (KHTML, like Gecko) Chrome/93.0.4577.82 Safari/537.36" etag="5VSU5d0vNB6JBOYW5kVg" version="15.7.0" type="github">
  <diagram id="tRa1csH4-88LfmXuXKnR" name="Page-1">
    <mxGraphModel dx="2927" dy="778" grid="1" gridSize="10" guides="1" tooltips="1" connect="1" arrows="1" fold="1" page="1" pageScale="1" pageWidth="1654" pageHeight="2336" math="0" shadow="0">
      <root>
        <mxCell id="0" />
        <mxCell id="1" parent="0" />
        <mxCell id="4Wosh37YM3WKKmuV432c-3" value="" style="edgeStyle=orthogonalEdgeStyle;rounded=0;orthogonalLoop=1;jettySize=auto;html=1;" edge="1" parent="1" source="4Wosh37YM3WKKmuV432c-1" target="4Wosh37YM3WKKmuV432c-2">
          <mxGeometry relative="1" as="geometry" />
        </mxCell>
        <mxCell id="4Wosh37YM3WKKmuV432c-1" value="开始" style="ellipse;whiteSpace=wrap;html=1;" vertex="1" parent="1">
          <mxGeometry x="72.5" y="80" width="70" height="40" as="geometry" />
        </mxCell>
        <mxCell id="4Wosh37YM3WKKmuV432c-39" style="edgeStyle=orthogonalEdgeStyle;rounded=0;orthogonalLoop=1;jettySize=auto;html=1;exitX=1;exitY=0.5;exitDx=0;exitDy=0;entryX=0;entryY=0.5;entryDx=0;entryDy=0;" edge="1" parent="1" source="4Wosh37YM3WKKmuV432c-2" target="4Wosh37YM3WKKmuV432c-6">
          <mxGeometry relative="1" as="geometry" />
        </mxCell>
        <mxCell id="4Wosh37YM3WKKmuV432c-2" value="Update 开始" style="whiteSpace=wrap;html=1;" vertex="1" parent="1">
          <mxGeometry x="230" y="87.5" width="115" height="25" as="geometry" />
        </mxCell>
        <mxCell id="4Wosh37YM3WKKmuV432c-16" value="" style="edgeStyle=orthogonalEdgeStyle;rounded=0;orthogonalLoop=1;jettySize=auto;html=1;" edge="1" parent="1" source="4Wosh37YM3WKKmuV432c-4" target="4Wosh37YM3WKKmuV432c-15">
          <mxGeometry relative="1" as="geometry" />
        </mxCell>
        <mxCell id="4Wosh37YM3WKKmuV432c-4" value="获取一个没满的房间" style="whiteSpace=wrap;html=1;fillColor=#FFFFCC;" vertex="1" parent="1">
          <mxGeometry y="360" width="120" height="60" as="geometry" />
        </mxCell>
        <mxCell id="4Wosh37YM3WKKmuV432c-9" style="edgeStyle=orthogonalEdgeStyle;rounded=0;orthogonalLoop=1;jettySize=auto;html=1;exitX=0.5;exitY=1;exitDx=0;exitDy=0;entryX=0.5;entryY=0;entryDx=0;entryDy=0;" edge="1" parent="1" source="4Wosh37YM3WKKmuV432c-6" target="4Wosh37YM3WKKmuV432c-10">
          <mxGeometry relative="1" as="geometry" />
        </mxCell>
        <mxCell id="4Wosh37YM3WKKmuV432c-24" style="edgeStyle=orthogonalEdgeStyle;rounded=0;orthogonalLoop=1;jettySize=auto;html=1;exitX=1;exitY=0.5;exitDx=0;exitDy=0;entryX=0;entryY=0.5;entryDx=0;entryDy=0;" edge="1" parent="1" source="4Wosh37YM3WKKmuV432c-6" target="4Wosh37YM3WKKmuV432c-23">
          <mxGeometry relative="1" as="geometry" />
        </mxCell>
        <mxCell id="4Wosh37YM3WKKmuV432c-36" style="edgeStyle=orthogonalEdgeStyle;rounded=0;orthogonalLoop=1;jettySize=auto;html=1;exitX=0.5;exitY=1;exitDx=0;exitDy=0;entryX=0.5;entryY=0;entryDx=0;entryDy=0;" edge="1" parent="1" source="4Wosh37YM3WKKmuV432c-6" target="4Wosh37YM3WKKmuV432c-35">
          <mxGeometry relative="1" as="geometry" />
        </mxCell>
        <mxCell id="4Wosh37YM3WKKmuV432c-6" value="" style="ellipse;whiteSpace=wrap;html=1;aspect=fixed;" vertex="1" parent="1">
          <mxGeometry x="390" y="87.5" width="25" height="25" as="geometry" />
        </mxCell>
        <mxCell id="4Wosh37YM3WKKmuV432c-40" style="edgeStyle=orthogonalEdgeStyle;rounded=0;orthogonalLoop=1;jettySize=auto;html=1;exitX=0.5;exitY=1;exitDx=0;exitDy=0;entryX=0.5;entryY=0;entryDx=0;entryDy=0;" edge="1" parent="1" source="4Wosh37YM3WKKmuV432c-10" target="4Wosh37YM3WKKmuV432c-12">
          <mxGeometry relative="1" as="geometry" />
        </mxCell>
        <mxCell id="4Wosh37YM3WKKmuV432c-10" value="加入房间（场景）" style="rounded=1;whiteSpace=wrap;html=1;" vertex="1" parent="1">
          <mxGeometry x="97.5" y="170" width="120" height="60" as="geometry" />
        </mxCell>
        <mxCell id="4Wosh37YM3WKKmuV432c-19" style="edgeStyle=orthogonalEdgeStyle;rounded=0;orthogonalLoop=1;jettySize=auto;html=1;exitX=0.5;exitY=1;exitDx=0;exitDy=0;entryX=0.5;entryY=0;entryDx=0;entryDy=0;" edge="1" parent="1" source="4Wosh37YM3WKKmuV432c-12" target="4Wosh37YM3WKKmuV432c-17">
          <mxGeometry relative="1" as="geometry" />
        </mxCell>
        <mxCell id="4Wosh37YM3WKKmuV432c-41" style="edgeStyle=orthogonalEdgeStyle;rounded=0;orthogonalLoop=1;jettySize=auto;html=1;exitX=0;exitY=0.5;exitDx=0;exitDy=0;entryX=0.5;entryY=0;entryDx=0;entryDy=0;" edge="1" parent="1" source="4Wosh37YM3WKKmuV432c-12" target="4Wosh37YM3WKKmuV432c-4">
          <mxGeometry relative="1" as="geometry" />
        </mxCell>
        <mxCell id="4Wosh37YM3WKKmuV432c-12" value="房间有无过期？" style="rhombus;whiteSpace=wrap;html=1;" vertex="1" parent="1">
          <mxGeometry x="117.5" y="270" width="80" height="80" as="geometry" />
        </mxCell>
        <mxCell id="4Wosh37YM3WKKmuV432c-18" value="" style="edgeStyle=orthogonalEdgeStyle;rounded=0;orthogonalLoop=1;jettySize=auto;html=1;" edge="1" parent="1" source="4Wosh37YM3WKKmuV432c-15" target="4Wosh37YM3WKKmuV432c-17">
          <mxGeometry relative="1" as="geometry" />
        </mxCell>
        <mxCell id="4Wosh37YM3WKKmuV432c-15" value="获取房间用户名称" style="whiteSpace=wrap;html=1;fillColor=#FFFFCC;" vertex="1" parent="1">
          <mxGeometry y="450" width="120" height="60" as="geometry" />
        </mxCell>
        <mxCell id="4Wosh37YM3WKKmuV432c-21" value="" style="edgeStyle=orthogonalEdgeStyle;rounded=0;orthogonalLoop=1;jettySize=auto;html=1;" edge="1" parent="1" source="4Wosh37YM3WKKmuV432c-17" target="4Wosh37YM3WKKmuV432c-20">
          <mxGeometry relative="1" as="geometry" />
        </mxCell>
        <mxCell id="4Wosh37YM3WKKmuV432c-17" value="显示【加入房间】&lt;br&gt;按钮" style="whiteSpace=wrap;html=1;" vertex="1" parent="1">
          <mxGeometry x="97.5" y="550" width="120" height="60" as="geometry" />
        </mxCell>
        <mxCell id="4Wosh37YM3WKKmuV432c-28" value="" style="edgeStyle=orthogonalEdgeStyle;rounded=0;orthogonalLoop=1;jettySize=auto;html=1;exitX=0;exitY=0.5;exitDx=0;exitDy=0;" edge="1" parent="1" source="4Wosh37YM3WKKmuV432c-20" target="4Wosh37YM3WKKmuV432c-27">
          <mxGeometry relative="1" as="geometry" />
        </mxCell>
        <mxCell id="4Wosh37YM3WKKmuV432c-47" style="edgeStyle=orthogonalEdgeStyle;rounded=0;orthogonalLoop=1;jettySize=auto;html=1;exitX=0.5;exitY=1;exitDx=0;exitDy=0;" edge="1" parent="1" source="4Wosh37YM3WKKmuV432c-20" target="4Wosh37YM3WKKmuV432c-45">
          <mxGeometry relative="1" as="geometry" />
        </mxCell>
        <mxCell id="4Wosh37YM3WKKmuV432c-20" value="有没有点击加入？" style="rhombus;whiteSpace=wrap;html=1;" vertex="1" parent="1">
          <mxGeometry x="97.5" y="650" width="120" height="80" as="geometry" />
        </mxCell>
        <mxCell id="4Wosh37YM3WKKmuV432c-26" style="edgeStyle=orthogonalEdgeStyle;rounded=0;orthogonalLoop=1;jettySize=auto;html=1;exitX=0.5;exitY=0;exitDx=0;exitDy=0;entryX=0.5;entryY=0;entryDx=0;entryDy=0;" edge="1" parent="1" source="4Wosh37YM3WKKmuV432c-23" target="4Wosh37YM3WKKmuV432c-2">
          <mxGeometry relative="1" as="geometry" />
        </mxCell>
        <mxCell id="4Wosh37YM3WKKmuV432c-23" value="Update 结束" style="whiteSpace=wrap;html=1;" vertex="1" parent="1">
          <mxGeometry x="510" y="87.5" width="115" height="25" as="geometry" />
        </mxCell>
        <mxCell id="4Wosh37YM3WKKmuV432c-33" style="edgeStyle=orthogonalEdgeStyle;rounded=0;orthogonalLoop=1;jettySize=auto;html=1;" edge="1" parent="1" source="4Wosh37YM3WKKmuV432c-27" target="4Wosh37YM3WKKmuV432c-29">
          <mxGeometry relative="1" as="geometry" />
        </mxCell>
        <mxCell id="4Wosh37YM3WKKmuV432c-27" value="加入房间" style="whiteSpace=wrap;html=1;fillColor=#FFFFCC;" vertex="1" parent="1">
          <mxGeometry x="-10" y="790" width="120" height="60" as="geometry" />
        </mxCell>
        <mxCell id="4Wosh37YM3WKKmuV432c-46" style="edgeStyle=orthogonalEdgeStyle;rounded=0;orthogonalLoop=1;jettySize=auto;html=1;exitX=0.5;exitY=1;exitDx=0;exitDy=0;entryX=0;entryY=0.5;entryDx=0;entryDy=0;" edge="1" parent="1" source="4Wosh37YM3WKKmuV432c-29" target="4Wosh37YM3WKKmuV432c-45">
          <mxGeometry relative="1" as="geometry" />
        </mxCell>
        <mxCell id="4Wosh37YM3WKKmuV432c-29" value="设置为【等到满员】下一个场景" style="whiteSpace=wrap;html=1;" vertex="1" parent="1">
          <mxGeometry x="-10" y="870" width="117.5" height="60" as="geometry" />
        </mxCell>
        <mxCell id="4Wosh37YM3WKKmuV432c-35" value="加入房间（场景）" style="rounded=1;whiteSpace=wrap;html=1;" vertex="1" parent="1">
          <mxGeometry x="400" y="170" width="120" height="60" as="geometry" />
        </mxCell>
        <mxCell id="4Wosh37YM3WKKmuV432c-48" style="edgeStyle=orthogonalEdgeStyle;rounded=0;orthogonalLoop=1;jettySize=auto;html=1;exitX=1;exitY=0.5;exitDx=0;exitDy=0;entryX=1;entryY=0.5;entryDx=0;entryDy=0;" edge="1" parent="1" source="4Wosh37YM3WKKmuV432c-45" target="4Wosh37YM3WKKmuV432c-10">
          <mxGeometry relative="1" as="geometry" />
        </mxCell>
        <mxCell id="4Wosh37YM3WKKmuV432c-45" value="" style="ellipse;whiteSpace=wrap;html=1;" vertex="1" parent="1">
          <mxGeometry x="97.5" y="930" width="120" height="80" as="geometry" />
        </mxCell>
      </root>
    </mxGraphModel>
  </diagram>
</mxfile>
